<?xml version="1.0" encoding="UTF-8" standalone="no"?>
<!-- Generator: Adobe Illustrator 27.5.0, SVG Export Plug-In . SVG Version: 6.00 Build 0)  -->

<svg
   version="1.1"
   id="Layer_1"
   x="0px"
   y="0px"
   viewBox="0 0 3857.799 2000"
   xml:space="preserve"
   sodipodi:docname="11671726_13113.svg"
   width="3857.7991"
   height="2000"
   inkscape:export-filename="wallpaper.jpg"
   inkscape:export-xdpi="96"
   inkscape:export-ydpi="96"
   inkscape:version="1.3.2 (091e20ef0f, 2023-11-25, custom)"
   xmlns:inkscape="http://www.inkscape.org/namespaces/inkscape"
   xmlns:sodipodi="http://sodipodi.sourceforge.net/DTD/sodipodi-0.dtd"
   xmlns:xlink="http://www.w3.org/1999/xlink"
   xmlns="http://www.w3.org/2000/svg"
   xmlns:svg="http://www.w3.org/2000/svg"><defs
   id="defs228"><linearGradient
     id="linearGradient228"
     inkscape:collect="always"><stop
       style="stop-color:#1d185e;stop-opacity:1;"
       offset="0.29221749"
       id="stop228" /><stop
       style="stop-color:#df7fa3;stop-opacity:1;"
       offset="1"
       id="stop229" /></linearGradient><linearGradient
     inkscape:collect="always"
     xlink:href="#linearGradient228"
     id="linearGradient229"
     x1="347.67715"
     y1="71.656967"
     x2="1671.0355"
     y2="3018.4961"
     gradientUnits="userSpaceOnUse" /></defs><sodipodi:namedview
   id="namedview228"
   pagecolor="#ffffff"
   bordercolor="#000000"
   borderopacity="0.25"
   inkscape:showpageshadow="2"
   inkscape:pageopacity="0.0"
   inkscape:pagecheckerboard="0"
   inkscape:deskcolor="#d1d1d1"
   inkscape:zoom="0.74140313"
   inkscape:cx="758.69655"
   inkscape:cy="2056.9106"
   inkscape:window-width="1920"
   inkscape:window-height="1048"
   inkscape:window-x="0"
   inkscape:window-y="0"
   inkscape:window-maximized="1"
   inkscape:current-layer="g227" />
<rect
   style="fill:#ffffff"
   width="3857.7991"
   height="2000"
   id="rect1"
   x="0"
   y="0" />
<g
   id="g228">
	<g
   id="g227">
		
		<rect
   style="fill:url(#linearGradient229);stroke:#2a2a2a;stroke-width:0.966663;fill-opacity:1"
   id="rect228"
   width="3856.8323"
   height="1999.0333"
   x="0.48339844"
   y="0.4833374" /><g
   style="opacity:0.1"
   id="g3"
   transform="translate(0,108)">
			<path
   style="fill:#86b1f2"
   d="m 238.997,1343.284 h 95.996 v -207.462 h 92.35 v 92.375 h 76.425 v -29.741 -183.112 H 628.9 v 194.631 l 37.432,1.248 v -196.244 h 43.671 v -83.626 h 26.203 V 875.186 H 838.52 v 56.167 h 26.203 v 83.626 h 43.67 v 106.307 l 20.15,1.254 6.052,-314.949 h 134.756 v 167.547 l 47.413,1.249 V 714.518 h 16.221 v -55.261 h 142.242 v 55.261 h 16.221 v 352.893 h 29.946 V 957.377 h 24.955 V 903.57 h 36.185 V 746.511 h 52.405 v 157.058 h 36.185 v 53.807 h 24.955 v 186.161 h 17.468 l 13.725,-0.184 V 927.669 l 369.33,3.531 v 54.256 h 31.194 v -47.26 h 77.689 V 622.995 h 71.144 v 44.933 h 32.452 v 92.089 h 112.333 v 63.655 h 95.254 v 107.7 l 150.494,-3.531 v 215.684 l 13.729,0.184 h 17.475 V 957.548 h 24.963 v -53.807 h 36.196 V 746.683 h 52.422 v 157.058 h 36.196 v 53.807 h 24.963 v 110.034 h 29.956 V 714.69 h 16.226 v -55.261 h 142.289 v 55.261 h 16.226 v 261.868 l 47.43,-1.249 V 807.762 h 134.8 l 6.054,314.948 20.157,-1.253 V 1015.15 h 43.685 v -83.626 h 26.211 v -56.167 h 102.349 v 56.167 h 26.211 v 83.626 h 43.686 v 196.244 l 33.099,-1.104 c -35.632,54.053 -54.423,125.039 88.33,236.682 181.256,141.753 37.522,369.55 -9.021,433.906 l -1534.057,-0.079 -1318.591,-0.068 -251.021,-1.482 c -24.586,0.041 -62.21,-81.744 -98.123,-200.404 v -335.561 z"
   id="path2" />
			<path
   style="fill:#86b1f2"
   d="m 3408.989,1140.184 c -7.815,19.437 -26.61,39.949 -43.164,63.705 v -188.373 h 82.891 c -7.438,51.633 -28.784,97.454 -39.727,124.668 z"
   id="path3" />
		</g>
		<g
   id="g5"
   transform="translate(0,108)">
			
				<rect
   x="781.91101"
   y="1537.858"
   transform="rotate(180,786.184,1612.7344)"
   style="fill:#355389"
   width="8.5459995"
   height="149.752"
   id="rect3" />
			<polygon
   style="fill:#3c8f7c"
   points="783.945,1270.868 826.059,1573.139 741.832,1573.139 "
   id="polygon3" />
			<polygon
   style="fill:#50bfa5"
   points="822.14,1545.01 823.387,1553.96 747.823,1530.139 748.965,1521.941 "
   id="polygon4" />
			<polygon
   style="fill:#50bfa5"
   points="808.835,1449.518 810.082,1458.468 760.008,1442.682 761.15,1434.484 "
   id="polygon5" />
		</g>
		<g
   id="g8"
   transform="translate(0,108)">
			
				<rect
   x="855.56403"
   y="1548.514"
   transform="rotate(180,859.19215,1588.7315)"
   style="fill:#355389"
   width="7.256"
   height="80.435997"
   id="rect5" />
			<polygon
   style="fill:#3c8f7c"
   points="859.192,1392.475 882.879,1583.899 835.506,1583.899 "
   id="polygon6" />
			<polygon
   style="fill:#50bfa5"
   points="873.238,1505.99 874.288,1514.471 840.513,1543.434 841.811,1532.938 "
   id="polygon7" />
			<polygon
   style="fill:#50bfa5"
   points="868.203,1465.292 869.096,1472.512 848.414,1479.583 849.386,1471.725 "
   id="polygon8" />
		</g>
		<g
   id="g12"
   transform="translate(0,108)">
			<path
   style="fill:#3c8f7c"
   d="m 1820.609,1616.41 c -0.592,-3.506 -0.9,-7.093 -0.9,-10.741 0,-40.694 38.139,-73.684 85.186,-73.684 47.046,0 85.186,32.989 85.186,73.684 0,3.648 -0.309,7.235 -0.9,10.741 z"
   id="path8" />
			<path
   style="fill:#50bfa5"
   d="m 1724.202,1598.302 c -0.592,-4.945 -0.9,-10.003 -0.9,-15.149 0,-57.39 38.139,-103.913 85.186,-103.913 47.047,0 85.187,46.523 85.187,103.913 0,5.146 -0.309,10.204 -0.9,15.149 z"
   id="path9" />
			<path
   style="fill:#50bfa5"
   d="m 1755.392,1661.978 c 0.592,-3.506 0.9,-7.093 0.9,-10.741 0,-40.694 -38.139,-73.684 -85.186,-73.684 -47.047,0 -85.186,32.989 -85.186,73.684 0,3.648 0.308,7.235 0.9,10.741 z"
   id="path10" />
			<path
   style="fill:#367f6c"
   d="m 1891.726,1661.978 c 0.751,-4.944 1.142,-10.003 1.142,-15.148 0,-57.39 -48.349,-103.913 -107.99,-103.913 -59.641,0 -107.99,46.523 -107.99,103.913 0,5.146 0.391,10.204 1.142,15.148 z"
   id="path11" />
			<path
   style="fill:#50bfa5"
   d="m 1808.81,1542.916 c 29.808,0 56.437,14.759 74.011,37.906 8.949,-2.125 18.458,-3.27 28.315,-3.27 52.921,0 95.823,32.989 95.823,73.684 0,3.648 -28.164,80.318 -28.83,83.825 L 1714,1661.978 c -0.666,-4.944 -1.012,-10.003 -1.012,-15.148 -10e-4,-57.391 42.901,-103.914 95.822,-103.914 z"
   id="path12" />
		</g>
		<path
   style="fill:#3c8f7c"
   d="m 2932.754,1571.679 c 135.771,-11.602 396.565,95.287 603.602,198.517 -7.597,56.721 -30.887,110.803 -53.983,152.866 l -91.755,-1.515 78.395,0.07 c -46.289,-1.188 -790.724,-91.191 -1297.244,-146.333 273.987,-81.711 548.893,-185.483 760.985,-203.605 z"
   id="path13" />
		<g
   id="g19"
   transform="translate(0,108)">
			<path
   style="fill:#29446d"
   d="m 1148.528,1258.201 c -0.076,-2.504 -3.539,-4.448 -5.375,-2.228 -1.831,2.212 -1.752,0.718 -3.536,5.505 -5.119,13.74 -12.642,27.033 -21.398,38.65 -16.778,22.26 -33.388,33.488 -52.246,44.614 7.771,-17.47 12.975,-36.117 13.638,-54.928 0.241,-6.854 0.109,-13.964 -2.83,-20.254 -0.821,-1.757 -3.975,-1.396 -4.294,0.562 -1.584,9.706 0.747,17.024 -2.401,34.396 -7.514,41.452 -37.25,85.42 -65.936,116.209 5.502,-52.123 8.168,-111.359 -1.67,-163.933 -1.613,-8.623 -4.179,-16.825 -6.563,-25.25 -0.561,-1.981 -3.384,-1.13 -3.036,0.838 0.495,2.803 5.182,38.98 5.465,41.474 4.546,40.039 3.638,84.394 0.099,124.842 -22.251,-30.067 -37.146,-65.231 -44.109,-101.953 -2.059,-10.854 -2.608,-22.062 -5.494,-32.715 -0.398,-1.468 -2.828,-1.626 -3.13,0 -2.964,15.961 2.971,44.195 7.296,59.537 8.766,31.089 22.792,58.956 41.968,83.851 0.746,0.968 -30.795,244.239 -29.947,247.319 1.43,5.195 10.5,8.842 11.907,-0.375 0.573,-3.754 17.903,-151.672 25.724,-220.19 2.955,-1.624 4.856,-4.514 12.457,-13.039 17.592,-19.731 34.988,-44.282 46.615,-67.437 6.978,-0.396 57.362,-24.857 82.354,-80.558 0.72,-1.605 3.966,-9.146 4.43,-10.827 0.397,-1.439 0.055,-2.687 0.012,-4.11 z"
   id="path14" />
			<path
   style="fill:#184655"
   d="m 986.714,1179.326 c 0.574,-7.487 0.872,-15.145 0.872,-22.936 0,-86.892 -36.961,-157.331 -82.554,-157.331 -45.593,0 -82.554,70.439 -82.554,157.331 0,7.791 0.299,15.448 0.873,22.936 z"
   id="path15" />
			<path
   style="fill:#3c8f7c"
   d="m 1080.143,1140.659 c 0.574,-10.559 0.873,-21.358 0.873,-32.346 0,-122.54 -36.96,-221.878 -82.554,-221.878 -45.594,0 -82.554,99.338 -82.554,221.878 0,10.987 0.299,21.787 0.873,32.346 z"
   id="path16" />
			<path
   style="fill:#3c8f7c"
   d="m 1049.917,1276.623 c -0.574,-7.488 -0.873,-15.146 -0.873,-22.937 0,-86.892 36.96,-157.33 82.554,-157.33 45.594,0 82.554,70.438 82.554,157.33 0,7.791 -0.299,15.448 -0.873,22.937 z"
   id="path17" />
			<path
   style="fill:#184655"
   d="m 917.795,1276.623 c -0.727,-10.56 -1.106,-21.359 -1.106,-32.346 0,-122.54 46.854,-221.879 104.653,-221.879 57.798,0 104.653,99.339 104.653,221.879 0,10.986 -0.378,21.786 -1.106,32.346 z"
   id="path18" />
			<path
   style="fill:#3c8f7c"
   d="m 998.149,1022.398 c -28.887,0 -54.693,31.515 -71.725,80.94 -8.672,-4.538 -17.887,-6.981 -27.439,-6.981 -51.287,0 -92.862,70.438 -92.862,157.33 0,7.791 0.336,15.448 0.981,22.937 h 282.926 c 0.646,-10.56 0.981,-21.359 0.981,-32.346 10e-4,-122.541 -41.575,-221.88 -92.862,-221.88 z"
   id="path19" />
		</g>
		<path
   style="fill:#96d9c9"
   d="m 900.306,1833.766 h 2621.28 c -31.303,96.48 -94.041,172.55 -94.041,172.55 l -38.348,-1.04 -2488.891,-1.885 z"
   id="path20" />
		<path
   style="fill:#3c8f7c"
   d="m 1248.325,1617.27 c 212.093,18.123 486.999,121.895 760.987,203.605 -506.521,55.143 -1250.956,145.146 -1297.244,146.334 l 78.395,-0.071 -110.54,1.825 -301.67,-4.223 c 140.68,-94.511 657.958,-365.595 870.072,-347.47 z"
   id="path21" />
		<g
   id="g27"
   transform="translate(0,108)">
			<g
   id="g23">
				<path
   style="fill:#29446d"
   d="m 331.897,1716.514 c -12.004,-31.231 -23.764,-62.479 -32.298,-94.972 -26.263,-99.988 -19.923,-172.867 -18.943,-207.909 0.129,-4.628 -7.299,-5.898 -7.947,-1.12 -2.232,16.448 -2.729,33.157 -2.838,49.753 -0.185,28.04 1.52,56.096 5.115,84.116 -19.264,5.018 -37.489,-2.495 -52.398,-15.992 -25.7,-23.266 -34.874,-54.271 -38.914,-88.621 -0.413,-3.509 -0.542,-6.829 -3.398,-8.859 -0.636,-1.8 -3.267,-2.354 -3.919,0.334 -4.072,4.187 -2.1,12.589 -1.473,17.997 8.481,73.152 52.95,108.614 88.753,108.304 3.926,-0.034 8.7,-0.228 12.969,-1.413 2.581,17.497 5.898,34.876 9.958,52.069 7.735,32.762 18.586,64.377 30.526,95.699 40.828,107.101 53.855,161.814 65.454,192.814 1.754,6.232 10.972,3.622 9.359,-2.688 -0.575,-2.247 -32.429,-107.764 -60.006,-179.512 z"
   id="path22" />
				<path
   style="fill:#29446d"
   d="m 495.484,1434.944 c -0.387,-2.306 -1.733,-3.833 -2.245,-5.99 -0.676,-2.847 -5.322,-3.132 -5.808,0 -0.278,1.791 -1.272,2.894 -1.658,4.729 -1.245,5.922 1.765,39.24 -6.093,90.243 -2.088,13.555 -4.395,27.034 -8.91,39.974 -7.296,20.914 -20.593,43.457 -37.126,57.705 -0.525,-29.875 -2.312,-59.711 -5.895,-89.387 -2.144,-17.762 -4.85,-35.436 -8.135,-53.007 -1.6,-8.557 -3.332,-17.086 -5.193,-25.585 -1.953,-8.921 -3.793,-17.483 -8.063,-25.556 -1.312,-2.479 -5.039,-1.326 -5.045,1.424 -0.017,7.92 1.566,15.213 3.218,22.906 1.645,7.66 3.184,15.346 4.617,23.052 10.623,57.109 14.619,107.821 14.575,165.001 -17.515,-22.033 -32.829,-48.42 -44.176,-74.338 -13.639,-31.152 -22.826,-64.678 -26.649,-98.699 -1.069,-9.517 -1.72,-19.086 -1.924,-28.666 -0.105,-4.961 -0.207,-9.919 -0.307,-14.879 -0.051,-2.554 -1.029,-10.248 -5.328,-7.993 -3.955,2.074 -3.58,6.702 -3.911,10.746 -0.361,4.41 -0.393,8.804 -0.337,13.229 0.106,8.469 0.56,16.933 1.344,25.362 5.686,61.098 28.739,121.486 63.793,170.972 5.343,7.543 10.861,15.628 17.35,22.21 -1.494,97.787 -16.018,221.311 -16.272,231.182 -0.056,2.18 0.436,4.408 0.757,6.562 0.663,4.439 6.493,3.409 7.685,0 2.252,-6.443 2.021,-8.952 5.38,-44.625 5.99,-63.613 12.7,-209.345 12.675,-215.252 20.812,-14.954 35.549,-37.956 45.179,-61.98 5.11,-12.747 8.109,-25.864 10.358,-39.442 7.649,-46.185 7.411,-92.347 6.144,-99.898 z"
   id="path23" />
			</g>
			<path
   style="fill:#184655"
   d="m 352.417,1355.141 c 0.789,-7.046 1.2,-14.253 1.2,-21.585 0,-81.774 -50.817,-148.066 -113.503,-148.066 -62.686,0 -113.503,66.292 -113.503,148.066 0,7.332 0.411,14.539 1.2,21.585 z"
   id="path24" />
			<path
   style="fill:#3c8f7c"
   d="m 480.871,1318.751 c 0.789,-9.938 1.2,-20.101 1.2,-30.441 0,-115.324 -50.817,-208.813 -113.502,-208.813 -62.686,0 -113.503,93.489 -113.503,208.813 0,10.341 0.411,20.504 1.2,30.441 z"
   id="path25" />
			<path
   style="fill:#184655"
   d="m 257.661,1446.708 c -1,-9.938 -1.52,-20.101 -1.52,-30.44 0,-115.325 64.42,-208.813 143.887,-208.813 79.467,0 143.887,93.488 143.887,208.813 0,10.34 -0.52,20.503 -1.521,30.44 z"
   id="path26" />
			<path
   style="fill:#3c8f7c"
   d="m 368.139,1207.454 c -39.716,0 -75.197,29.658 -98.614,76.173 -11.924,-4.271 -24.594,-6.57 -37.727,-6.57 -70.513,0 -127.676,66.291 -127.676,148.066 0,7.332 0.462,14.539 1.35,21.585 h 388.993 c 0.888,-9.938 1.35,-20.101 1.35,-30.44 -10e-4,-115.326 -57.163,-208.814 -127.676,-208.814 z"
   id="path27" />
		</g>
		<g
   id="g30"
   transform="translate(0,108)">
			<path
   style="fill:#327765"
   d="m 543.828,1634.769 -18.519,-23.662 c -13.393,-17.806 -10.661,-42.462 6.101,-55.069 v 0 c 42.242,-31.771 103.845,-21.151 137.596,23.722 l 24.675,32.806 c 10.81,14.373 27.828,21.111 43.731,18.955 14.443,-1.96 29.208,4.729 38.387,16.935 l 13.009,17.296 c 14.083,18.725 18.958,42.427 14.025,64.486 -2.884,12.901 -0.114,27.3 8.763,39.103 l 18.419,24.489 c 20.363,27.074 16.21,64.562 -9.276,83.73 l -14.541,10.938 c -25.487,19.17 -62.656,12.762 -83.019,-14.313 v 0 c -21.538,-37.345 -46.522,-49.454 -66.704,-51.938 -29.676,-3.652 -57.291,-19.408 -75.852,-44.086 l -2.602,-3.461 c -19.59,-26.046 -26.619,-58.938 -20.183,-89.741 2.842,-13.601 0.667,-30.678 -14.01,-50.19 z"
   id="path28" />
			<path
   style="fill:#50bfa5"
   d="m 955.027,1894.763 c 0,0 -95.515,-126.874 -155.623,-146.333 -60.108,-19.459 -13.128,47.579 -13.128,47.579 0,0 -96.957,-106.349 -136.086,-95.838 -35.868,9.636 0,81.907 0,81.907 0,0 -40.398,-40.021 -89.389,-40.021 -48.991,0 37.866,149.854 37.866,149.854 z"
   id="path29" />
			<path
   style="fill:#96d9c9"
   d="m 650.189,1894.049 c 0,0 -77.71,-195.605 -158.569,-175.414 -65.526,16.363 -27.045,90.693 -31.039,86.699 -3.995,-3.995 -18.615,-29.102 -75.479,-29.102 -56.864,0 1.01,70.752 1.01,70.752 0,0 -104.71,-28.107 -114.197,11.623 -7.874,32.975 36.16,35.441 36.16,35.441 h 342.114 z"
   id="path30" />
		</g>
		<path
   style="opacity:0.8;fill:#ffffff"
   d="m 2313.072,559.716 c 6.12,-26.66 29.961,-46.549 58.461,-46.549 5.232,0 10.307,0.673 15.145,1.933 14.066,-30.1 44.592,-50.957 79.991,-50.957 9.151,0 17.979,1.394 26.278,3.981 19.057,-31.577 53.678,-52.691 93.23,-52.691 47.057,0 87.137,29.886 102.323,71.724 10.75,-5.997 23.126,-9.427 36.307,-9.427 41.247,0 74.685,33.459 74.685,74.734 0,2.447 -0.126,4.864 -0.355,7.251 h -486.065 z"
   id="path31" />
		<path
   style="opacity:0.8;fill:#ffffff"
   d="m 1797.372,790.458 c -2.522,-10.987 -12.348,-19.185 -24.093,-19.185 -2.157,0 -4.248,0.277 -6.242,0.796 -5.797,-12.405 -18.377,-21.001 -32.966,-21.001 -3.772,0 -7.41,0.575 -10.831,1.641 -7.854,-13.014 -22.122,-21.715 -38.422,-21.715 -19.394,0 -35.912,12.317 -42.171,29.56 -4.43,-2.472 -9.531,-3.886 -14.963,-3.886 -16.999,0 -30.78,13.79 -30.78,30.8 0,1.009 0.052,2.005 0.146,2.989 h 200.322 z"
   id="path32" />
		<path
   style="opacity:0.8;fill:#ffffff"
   d="m 2510.645,829.198 c -3.287,-14.316 -16.09,-24.997 -31.395,-24.997 -2.81,0 -5.534,0.362 -8.133,1.038 -7.553,-16.164 -23.945,-27.364 -42.955,-27.364 -4.914,0 -9.654,0.748 -14.111,2.138 -10.233,-16.956 -28.825,-28.295 -50.064,-28.295 -25.27,0 -46.793,16.049 -54.948,38.516 -5.772,-3.221 -12.419,-5.063 -19.497,-5.063 -22.149,0 -40.105,17.968 -40.105,40.133 0,1.314 0.068,2.612 0.191,3.894 z"
   id="path33" />
		<g
   id="g179"
   transform="translate(0,108)">
			
				<rect
   x="2167.554"
   y="1223.74"
   transform="rotate(180,2188.4682,1482.7187)"
   style="fill:#fcf5eb"
   width="41.828999"
   height="517.95697"
   id="rect33" />
			<rect
   x="1916.8879"
   y="1016.368"
   style="fill:#fae0b2"
   width="293.91501"
   height="169.88699"
   id="rect34" />
			<rect
   x="2176.1599"
   y="1016.368"
   style="fill:#fae0b2"
   width="34.643002"
   height="169.88699"
   id="rect35" />
			<rect
   x="1903.443"
   y="1008.182"
   style="fill:#184655"
   width="313.80399"
   height="16.372999"
   id="rect36" />
			
				<rect
   x="1916.535"
   y="1059.272"
   transform="rotate(90,1961.376,1092.8135)"
   style="fill:#86b1f2"
   width="89.681999"
   height="67.082001"
   id="rect37" />
			
				<rect
   x="2000.428"
   y="1059.272"
   transform="rotate(90,2045.2685,1092.8134)"
   style="fill:#86b1f2"
   width="89.681999"
   height="67.082001"
   id="rect38" />
			
				<rect
   x="2082.603"
   y="1059.272"
   transform="rotate(90,2127.4434,1092.8134)"
   style="fill:#86b1f2"
   width="89.681999"
   height="67.082001"
   id="rect39" />
			
				<rect
   x="2714.866"
   y="1016.368"
   transform="rotate(180,2861.8238,1101.3115)"
   style="fill:#fae0b2"
   width="293.91501"
   height="169.88699"
   id="rect40" />
			
				<rect
   x="2714.866"
   y="1016.368"
   transform="rotate(180,2732.187,1101.3115)"
   style="fill:#fae0b2"
   width="34.641998"
   height="169.88699"
   id="rect41" />
			<rect
   x="1839.993"
   y="1188.771"
   style="fill:#fae0b2"
   width="371.47699"
   height="566.49701"
   id="rect42" />
			
				<rect
   x="1892.907"
   y="1197.0909"
   transform="rotate(90,1937.7481,1268.4882)"
   style="fill:#86b1f2"
   width="89.681999"
   height="142.795"
   id="rect43" />
			
				<rect
   x="1892.908"
   y="1301.139"
   transform="rotate(90,1937.7481,1372.5366)"
   style="fill:#86b1f2"
   width="89.681"
   height="142.795"
   id="rect44" />
			
				<rect
   x="1892.907"
   y="1405.188"
   transform="rotate(90,1937.7481,1476.5849)"
   style="fill:#86b1f2"
   width="89.681999"
   height="142.795"
   id="rect45" />
			
				<rect
   x="1892.907"
   y="1509.236"
   transform="rotate(90,1937.7481,1580.6337)"
   style="fill:#86b1f2"
   width="89.681999"
   height="142.795"
   id="rect46" />
			
				<rect
   x="1892.907"
   y="1613.285"
   transform="rotate(90,1937.748,1684.6826)"
   style="fill:#86b1f2"
   width="89.681999"
   height="142.795"
   id="rect47" />
			
				<rect
   x="2051.2371"
   y="1197.0909"
   transform="rotate(90,2096.0781,1268.4883)"
   style="fill:#86b1f2"
   width="89.681999"
   height="142.795"
   id="rect48" />
			
				<rect
   x="2051.238"
   y="1301.139"
   transform="rotate(90,2096.0781,1372.5366)"
   style="fill:#86b1f2"
   width="89.681"
   height="142.795"
   id="rect49" />
			
				<rect
   x="2051.2371"
   y="1405.188"
   transform="rotate(90,2096.0782,1476.585)"
   style="fill:#86b1f2"
   width="89.681999"
   height="142.795"
   id="rect50" />
			
				<rect
   x="2051.2371"
   y="1509.236"
   transform="rotate(90,2096.0781,1580.6338)"
   style="fill:#86b1f2"
   width="89.681999"
   height="142.795"
   id="rect51" />
			
				<rect
   x="2051.2371"
   y="1613.285"
   transform="rotate(90,2096.0781,1684.6826)"
   style="fill:#86b1f2"
   width="89.681999"
   height="142.795"
   id="rect52" />
			
				<rect
   x="2714.866"
   y="1188.771"
   transform="rotate(180,2900.6045,1472.02)"
   style="fill:#fae0b2"
   width="371.47699"
   height="566.49701"
   id="rect53" />
			
				<rect
   x="2714.866"
   y="1741.7581"
   transform="rotate(180,2902.8052,1748.5132)"
   style="fill:#184655"
   width="375.87799"
   height="13.511"
   id="rect54" />
			
				<rect
   x="1836.7419"
   y="1741.7581"
   transform="rotate(180,2024.6809,1748.5132)"
   style="fill:#184655"
   width="375.87799"
   height="13.511"
   id="rect55" />
			
				<rect
   x="2714.866"
   y="1188.771"
   transform="rotate(180,2732.187,1472.02)"
   style="fill:#fae0b2"
   width="34.641998"
   height="566.49701"
   id="rect56" />
			
				<rect
   x="2708.728"
   y="1008.182"
   transform="rotate(180,2865.4761,1016.3681)"
   style="fill:#184655"
   width="313.49701"
   height="16.372999"
   id="rect57" />
			
				<rect
   x="2209.51"
   y="1064.535"
   transform="rotate(180,2462.188,1123.3564)"
   style="fill:#fae0b2"
   width="505.35599"
   height="117.643"
   id="rect58" />
			
				<rect
   x="2209.51"
   y="1198.696"
   transform="rotate(180,2462.188,1476.9824)"
   style="fill:#fae0b2"
   width="505.35599"
   height="556.57202"
   id="rect59" />
			
				<rect
   x="2943.7471"
   y="1197.0909"
   transform="rotate(90,2988.5879,1268.4883)"
   style="fill:#86b1f2"
   width="89.681999"
   height="142.795"
   id="rect60" />
			
				<rect
   x="2943.748"
   y="1301.139"
   transform="rotate(90,2988.5879,1372.5366)"
   style="fill:#86b1f2"
   width="89.681"
   height="142.795"
   id="rect61" />
			
				<rect
   x="2943.7471"
   y="1405.188"
   transform="rotate(90,2988.5879,1476.585)"
   style="fill:#86b1f2"
   width="89.681999"
   height="142.795"
   id="rect62" />
			
				<rect
   x="2943.7471"
   y="1509.236"
   transform="rotate(90,2988.5879,1580.6338)"
   style="fill:#86b1f2"
   width="89.681999"
   height="142.795"
   id="rect63" />
			
				<rect
   x="2943.7471"
   y="1613.285"
   transform="rotate(90,2988.5879,1684.6826)"
   style="fill:#86b1f2"
   width="89.681999"
   height="142.795"
   id="rect64" />
			
				<rect
   x="2785.417"
   y="1197.09"
   transform="rotate(90,2830.2573,1268.4883)"
   style="fill:#86b1f2"
   width="89.681999"
   height="142.79601"
   id="rect65" />
			
				<rect
   x="2919.4519"
   y="1059.272"
   transform="rotate(90,2964.293,1092.8134)"
   style="fill:#86b1f2"
   width="89.681999"
   height="67.082001"
   id="rect66" />
			
				<rect
   x="2835.5601"
   y="1059.272"
   transform="rotate(90,2880.4004,1092.8135)"
   style="fill:#86b1f2"
   width="89.681999"
   height="67.082001"
   id="rect67" />
			
				<rect
   x="2753.384"
   y="1059.272"
   transform="rotate(90,2798.2251,1092.8135)"
   style="fill:#86b1f2"
   width="89.681999"
   height="67.083"
   id="rect68" />
			
				<rect
   x="2785.417"
   y="1301.139"
   transform="rotate(90,2830.2573,1372.5366)"
   style="fill:#86b1f2"
   width="89.681"
   height="142.79601"
   id="rect69" />
			
				<rect
   x="2785.417"
   y="1405.187"
   transform="rotate(90,2830.2573,1476.5849)"
   style="fill:#86b1f2"
   width="89.681999"
   height="142.79601"
   id="rect70" />
			
				<rect
   x="2785.417"
   y="1509.236"
   transform="rotate(90,2830.2573,1580.6338)"
   style="fill:#86b1f2"
   width="89.681999"
   height="142.79601"
   id="rect71" />
			
				<rect
   x="2785.417"
   y="1613.285"
   transform="rotate(90,2830.2573,1684.6826)"
   style="fill:#86b1f2"
   width="89.681999"
   height="142.79601"
   id="rect72" />
			
				<rect
   x="2386.187"
   y="1615.682"
   transform="rotate(180,2458.6851,1686.1294)"
   style="fill:#df7fa3;fill-opacity:1"
   width="144.99699"
   height="140.895"
   id="rect73" />
			
				<rect
   x="2928.9031"
   y="1134.42"
   transform="rotate(180,2964.293,1136.748)"
   style="fill:#184655"
   width="70.778999"
   height="4.6560001"
   id="rect74" />
			
				<rect
   x="2845.011"
   y="1134.42"
   transform="rotate(180,2880.4004,1136.748)"
   style="fill:#184655"
   width="70.778999"
   height="4.6560001"
   id="rect75" />
			
				<rect
   x="2762.8359"
   y="1134.42"
   transform="rotate(180,2798.2256,1136.748)"
   style="fill:#184655"
   width="70.778999"
   height="4.6560001"
   id="rect76" />
			
				<rect
   x="2092.9121"
   y="1134.42"
   transform="rotate(180,2128.3018,1136.748)"
   style="fill:#184655"
   width="70.778999"
   height="4.6560001"
   id="rect77" />
			
				<rect
   x="2009.02"
   y="1134.42"
   transform="rotate(180,2044.4092,1136.748)"
   style="fill:#184655"
   width="70.778999"
   height="4.6560001"
   id="rect78" />
			
				<rect
   x="1926.845"
   y="1134.42"
   transform="rotate(180,1962.2344,1136.748)"
   style="fill:#184655"
   width="70.778999"
   height="4.6560001"
   id="rect79" />
			<polygon
   style="opacity:0.5;fill:#ffffff"
   points="2896.643,1223.647 2991.555,1724.866 3073.576,1724.866 2978.665,1223.647 "
   id="polygon79" />
			
				<rect
   x="3059.9851"
   y="1223.647"
   transform="rotate(180,3073.164,1478.6255)"
   style="fill:#fae0b2"
   width="26.357"
   height="509.95599"
   id="rect80" />
			<polygon
   style="opacity:0.5;fill:#ffffff"
   points="2791.186,1223.647 2886.098,1724.866 2931.764,1724.866 2836.852,1223.647 "
   id="polygon80" />
			
				<rect
   x="2757.0959"
   y="1308.672"
   transform="rotate(180,2830.2573,1311.0005)"
   style="fill:#184655"
   width="146.323"
   height="4.6570001"
   id="rect81" />
			
				<rect
   x="2915.426"
   y="1412.7209"
   transform="rotate(180,2988.5874,1415.0488)"
   style="fill:#184655"
   width="146.323"
   height="4.6560001"
   id="rect82" />
			
				<rect
   x="2757.0959"
   y="1412.7209"
   transform="rotate(180,2830.2573,1415.0488)"
   style="fill:#184655"
   width="146.323"
   height="4.6560001"
   id="rect83" />
			
				<rect
   x="2915.426"
   y="1516.77"
   transform="rotate(180,2988.5874,1519.0976)"
   style="fill:#184655"
   width="146.323"
   height="4.6560001"
   id="rect84" />
			
				<rect
   x="2757.0959"
   y="1516.77"
   transform="rotate(180,2830.2573,1519.0976)"
   style="fill:#184655"
   width="146.323"
   height="4.6560001"
   id="rect85" />
			
				<rect
   x="2915.426"
   y="1620.818"
   transform="rotate(180,2988.5874,1623.1465)"
   style="fill:#184655"
   width="146.323"
   height="4.6560001"
   id="rect86" />
			
				<rect
   x="2757.0959"
   y="1620.818"
   transform="rotate(180,2830.2573,1623.1465)"
   style="fill:#184655"
   width="146.323"
   height="4.6560001"
   id="rect87" />
			
				<rect
   x="2915.426"
   y="1724.866"
   transform="rotate(180,2988.5874,1727.1948)"
   style="fill:#184655"
   width="146.323"
   height="4.6570001"
   id="rect88" />
			
				<rect
   x="2757.0959"
   y="1724.866"
   transform="rotate(180,2830.2573,1727.1948)"
   style="fill:#184655"
   width="146.323"
   height="4.6570001"
   id="rect89" />
			
				<rect
   x="2915.426"
   y="1308.672"
   transform="rotate(180,2988.5874,1311.0005)"
   style="fill:#184655"
   width="146.323"
   height="4.6570001"
   id="rect90" />
			
				<rect
   x="2901.655"
   y="1223.068"
   transform="rotate(180,2909.4229,1478.3359)"
   style="fill:#fae0b2"
   width="15.535"
   height="510.535"
   id="rect91" />
			
				<rect
   x="2757.0959"
   y="1625.475"
   transform="rotate(180,2911.1787,1632.6582)"
   style="fill:#fae0b2"
   width="308.16599"
   height="14.367"
   id="rect92" />
			
				<rect
   x="2757.0959"
   y="1521.426"
   transform="rotate(180,2911.1787,1528.6094)"
   style="fill:#fae0b2"
   width="308.16599"
   height="14.367"
   id="rect93" />
			
				<rect
   x="2757.0959"
   y="1417.377"
   transform="rotate(180,2911.1787,1424.5605)"
   style="fill:#fae0b2"
   width="308.16599"
   height="14.367"
   id="rect94" />
			
				<rect
   x="2757.0959"
   y="1313.329"
   transform="rotate(180,2911.1787,1320.5127)"
   style="fill:#fae0b2"
   width="308.16599"
   height="14.367"
   id="rect95" />
			<polygon
   style="opacity:0.5;fill:#ffffff"
   points="2028.371,1223.647 2123.282,1724.866 2205.305,1724.866 2110.393,1223.647 "
   id="polygon95" />
			<polygon
   style="opacity:0.5;fill:#ffffff"
   points="1898.643,1223.647 1993.554,1724.866 2039.221,1724.866 1944.31,1223.647 "
   id="polygon96" />
			
				<rect
   x="2009.1121"
   y="1223.068"
   transform="rotate(180,2016.8799,1478.3359)"
   style="fill:#fae0b2"
   width="15.535"
   height="510.535"
   id="rect96" />
			
				<rect
   x="1864.553"
   y="1625.475"
   transform="rotate(180,2018.636,1632.6582)"
   style="fill:#fae0b2"
   width="308.16599"
   height="14.367"
   id="rect97" />
			
				<rect
   x="1864.553"
   y="1521.426"
   transform="rotate(180,2018.636,1528.6094)"
   style="fill:#fae0b2"
   width="308.16599"
   height="14.367"
   id="rect98" />
			
				<rect
   x="1864.553"
   y="1417.377"
   transform="rotate(180,2018.636,1424.5605)"
   style="fill:#fae0b2"
   width="308.16599"
   height="14.367"
   id="rect99" />
			
				<rect
   x="1864.553"
   y="1313.329"
   transform="rotate(180,2018.636,1320.5127)"
   style="fill:#fae0b2"
   width="308.16599"
   height="14.367"
   id="rect100" />
			<polygon
   style="opacity:0.5;fill:#ffffff"
   points="2941.502,1047.973 2966.115,1134.42 2987.256,1134.42 2962.643,1047.973 "
   id="polygon100" />
			<polygon
   style="opacity:0.5;fill:#ffffff"
   points="2854.22,1047.973 2878.834,1134.42 2893.633,1134.42 2869.019,1047.973 "
   id="polygon101" />
			<polygon
   style="opacity:0.5;fill:#ffffff"
   points="2791.401,1047.973 2816.016,1134.42 2827.794,1134.42 2803.18,1047.973 "
   id="polygon102" />
			<polygon
   style="opacity:0.5;fill:#ffffff"
   points="2107.181,1047.973 2131.795,1134.42 2152.936,1134.42 2128.322,1047.973 "
   id="polygon103" />
			<polygon
   style="opacity:0.5;fill:#ffffff"
   points="2019.899,1047.973 2044.514,1134.42 2059.313,1134.42 2034.698,1047.973 "
   id="polygon104" />
			<polygon
   style="opacity:0.5;fill:#ffffff"
   points="1957.081,1047.973 1981.694,1134.42 1993.473,1134.42 1968.859,1047.973 "
   id="polygon105" />
			
				<rect
   x="1864.848"
   y="1308.672"
   transform="rotate(180,1938.0093,1311.0005)"
   style="fill:#184655"
   width="146.323"
   height="4.6570001"
   id="rect105" />
			
				<rect
   x="2023.178"
   y="1412.7209"
   transform="rotate(180,2096.3394,1415.0488)"
   style="fill:#184655"
   width="146.323"
   height="4.6560001"
   id="rect106" />
			
				<rect
   x="1864.848"
   y="1412.7209"
   transform="rotate(180,1938.0093,1415.0488)"
   style="fill:#184655"
   width="146.323"
   height="4.6560001"
   id="rect107" />
			
				<rect
   x="2023.178"
   y="1516.77"
   transform="rotate(180,2096.3394,1519.0976)"
   style="fill:#184655"
   width="146.323"
   height="4.6560001"
   id="rect108" />
			
				<rect
   x="1864.848"
   y="1516.77"
   transform="rotate(180,1938.0093,1519.0976)"
   style="fill:#184655"
   width="146.323"
   height="4.6560001"
   id="rect109" />
			
				<rect
   x="2023.178"
   y="1620.818"
   transform="rotate(180,2096.3394,1623.1465)"
   style="fill:#184655"
   width="146.323"
   height="4.6560001"
   id="rect110" />
			
				<rect
   x="1864.848"
   y="1620.818"
   transform="rotate(180,1938.0093,1623.1465)"
   style="fill:#184655"
   width="146.323"
   height="4.6560001"
   id="rect111" />
			
				<rect
   x="2023.178"
   y="1724.866"
   transform="rotate(180,2096.3394,1727.1948)"
   style="fill:#184655"
   width="146.323"
   height="4.6570001"
   id="rect112" />
			
				<rect
   x="1864.848"
   y="1724.866"
   transform="rotate(180,1938.0093,1727.1948)"
   style="fill:#184655"
   width="146.323"
   height="4.6570001"
   id="rect113" />
			
				<rect
   x="2023.178"
   y="1308.672"
   transform="rotate(180,2096.3394,1311.0005)"
   style="fill:#184655"
   width="146.323"
   height="4.6570001"
   id="rect114" />
			
				<rect
   x="2419.9629"
   y="1225.384"
   transform="rotate(90,2464.8038,1296.7812)"
   style="fill:#accbf9"
   width="89.681999"
   height="142.795"
   id="rect115" />
			
				<rect
   x="2578.293"
   y="1225.384"
   transform="rotate(90,2623.1338,1296.7812)"
   style="fill:#accbf9"
   width="89.681999"
   height="142.795"
   id="rect116" />
			
				<rect
   x="2391.9031"
   y="1336.965"
   transform="rotate(180,2465.065,1339.2934)"
   style="fill:#184655"
   width="146.323"
   height="4.6570001"
   id="rect117" />
			
				<rect
   x="2262.3311"
   y="1225.384"
   transform="rotate(90,2307.1719,1296.7813)"
   style="fill:#accbf9"
   width="89.681999"
   height="142.795"
   id="rect118" />
			
				<rect
   x="2234.271"
   y="1336.965"
   transform="rotate(180,2307.4336,1339.2934)"
   style="fill:#184655"
   width="146.32401"
   height="4.6570001"
   id="rect119" />
			
				<rect
   x="2550.2329"
   y="1336.965"
   transform="rotate(180,2623.395,1339.2934)"
   style="fill:#184655"
   width="146.323"
   height="4.6570001"
   id="rect120" />
			
				<rect
   x="2419.9629"
   y="1346.639"
   transform="rotate(90,2464.8037,1418.0361)"
   style="fill:#accbf9"
   width="89.681999"
   height="142.795"
   id="rect121" />
			
				<rect
   x="2578.293"
   y="1346.639"
   transform="rotate(90,2623.1338,1418.0361)"
   style="fill:#accbf9"
   width="89.681999"
   height="142.795"
   id="rect122" />
			
				<rect
   x="2391.9031"
   y="1458.22"
   transform="rotate(180,2465.065,1460.5483)"
   style="fill:#184655"
   width="146.323"
   height="4.6570001"
   id="rect123" />
			
				<rect
   x="2262.3311"
   y="1346.639"
   transform="rotate(90,2307.1719,1418.0362)"
   style="fill:#accbf9"
   width="89.681999"
   height="142.795"
   id="rect124" />
			
				<rect
   x="2234.271"
   y="1458.22"
   transform="rotate(180,2307.4336,1460.5483)"
   style="fill:#184655"
   width="146.32401"
   height="4.6570001"
   id="rect125" />
			
				<rect
   x="2550.2329"
   y="1458.22"
   transform="rotate(180,2623.395,1460.5483)"
   style="fill:#184655"
   width="146.323"
   height="4.6570001"
   id="rect126" />
			
				<rect
   x="2209.51"
   y="1064.535"
   transform="rotate(180,2462.188,1084.1333)"
   style="opacity:0.5;fill:#fae0b2"
   width="505.35599"
   height="39.195999"
   id="rect127" />
			
				<rect
   x="2198.335"
   y="1057.08"
   transform="rotate(180,2462.1875,1065.2666)"
   style="fill:#184655"
   width="527.70502"
   height="16.372999"
   id="rect128" />
			
				<rect
   x="2458.104"
   y="1615.682"
   transform="rotate(180,2458.6851,1686.1294)"
   style="fill:#f47458"
   width="1.163"
   height="140.895"
   id="rect129" />
			
				<rect
   x="2239.8159"
   y="1615.682"
   transform="rotate(180,2252.9156,1685.4751)"
   style="fill:#df7fa3;fill-opacity:1"
   width="26.198"
   height="139.58701"
   id="rect130" />
			
				<rect
   x="2658.678"
   y="1615.682"
   transform="rotate(180,2671.7764,1685.4751)"
   style="fill:#df7fa3;fill-opacity:1"
   width="26.197001"
   height="139.58701"
   id="rect131" />
			
				<rect
   x="2443.731"
   y="1648.052"
   transform="rotate(90,2494.5909,1674.0063)"
   style="fill:#86b1f2"
   width="101.72"
   height="51.908001"
   id="rect132" />
			
				<rect
   x="2371.927"
   y="1648.052"
   transform="rotate(90,2422.7872,1674.0063)"
   style="fill:#86b1f2"
   width="101.72"
   height="51.908001"
   id="rect133" />
			<polygon
   style="opacity:0.2;fill:#ffffff"
   points="2475.356,1623.146 2493.25,1724.866 2515.901,1724.866 2498.007,1623.146 "
   id="polygon133" />
			<polygon
   style="opacity:0.2;fill:#ffffff"
   points="2402.515,1623.146 2420.408,1724.866 2443.06,1724.866 2425.166,1623.146 "
   id="polygon134" />
			
				<rect
   x="2167.554"
   y="1492.015"
   transform="rotate(180,2186.4023,1614.7905)"
   style="fill:#fae0b2"
   width="37.696999"
   height="245.552"
   id="rect134" />
			<rect
   x="2174.7629"
   y="1196.887"
   style="fill:#fae0b2"
   width="34.641998"
   height="555.39801"
   id="rect135" />
			
				<rect
   x="2650.043"
   y="1117.0909"
   transform="rotate(180,2666.4483,1123.3769)"
   style="opacity:0.3;fill:#f7cc7f"
   width="32.811001"
   height="12.572"
   id="rect136" />
			
				<rect
   x="2675.918"
   y="1136.252"
   transform="rotate(180,2692.3227,1142.5381)"
   style="opacity:0.3;fill:#f7cc7f"
   width="32.810001"
   height="12.572"
   id="rect137" />
			
				<rect
   x="2654.689"
   y="1157.057"
   transform="rotate(180,2671.4795,1162.3755)"
   style="opacity:0.3;fill:#f7cc7f"
   width="33.580002"
   height="10.638"
   id="rect138" />
			
				<rect
   x="2633.814"
   y="1137.3199"
   transform="rotate(180,2650.1221,1142.6391)"
   style="opacity:0.3;fill:#f7cc7f"
   width="32.615002"
   height="10.638"
   id="rect139" />
			
				<rect
   x="2433.8689"
   y="1158.12"
   transform="rotate(180,2447.1328,1162.8716)"
   style="opacity:0.3;fill:#f7cc7f"
   width="26.527"
   height="9.5030003"
   id="rect140" />
			
				<rect
   x="2416.312"
   y="1142.6281"
   transform="rotate(180,2429.5747,1147.3794)"
   style="opacity:0.3;fill:#f7cc7f"
   width="26.525999"
   height="9.5030003"
   id="rect141" />
			
				<rect
   x="2570.2009"
   y="1649.059"
   transform="rotate(180,2583.4644,1653.8095)"
   style="opacity:0.3;fill:#f7cc7f"
   width="26.525999"
   height="9.5019999"
   id="rect142" />
			
				<rect
   x="2552.6431"
   y="1633.5649"
   transform="rotate(180,2565.9063,1638.3169)"
   style="opacity:0.3;fill:#f7cc7f"
   width="26.527"
   height="9.5030003"
   id="rect143" />
			
				<rect
   x="2287.468"
   y="1644.41"
   transform="rotate(180,2300.731,1649.1616)"
   style="opacity:0.3;fill:#f7cc7f"
   width="26.525999"
   height="9.5030003"
   id="rect144" />
			
				<rect
   x="2274.2991"
   y="1661.71"
   transform="rotate(180,2287.5625,1666.4614)"
   style="opacity:0.3;fill:#f7cc7f"
   width="26.527"
   height="9.5030003"
   id="rect145" />
			<rect
   x="2284.4231"
   y="1121.48"
   style="opacity:0.3;fill:#f7cc7f"
   width="32.811001"
   height="12.572"
   id="rect146" />
			<rect
   x="2209.5439"
   y="1155.047"
   style="opacity:0.3;fill:#f7cc7f"
   width="10.683"
   height="12.572"
   id="rect147" />
			<rect
   x="2209.2859"
   y="1134.907"
   style="opacity:0.3;fill:#f7cc7f"
   width="22.818001"
   height="12.572"
   id="rect148" />
			<rect
   x="2268.156"
   y="1138.006"
   style="opacity:0.3;fill:#f7cc7f"
   width="32.810001"
   height="12.572"
   id="rect149" />
			<rect
   x="2511.3301"
   y="1142.191"
   style="opacity:0.3;fill:#f7cc7f"
   width="32.811001"
   height="12.572"
   id="rect150" />
			<rect
   x="2530.9541"
   y="1123.342"
   style="opacity:0.3;fill:#f7cc7f"
   width="32.810001"
   height="12.572"
   id="rect151" />
			<rect
   x="2279.0071"
   y="1157.057"
   style="opacity:0.3;fill:#f7cc7f"
   width="33.580002"
   height="10.638"
   id="rect152" />
			<rect
   x="2335.031"
   y="1688.847"
   style="opacity:0.3;fill:#f7cc7f"
   width="32.810001"
   height="12.572"
   id="rect153" />
			<rect
   x="2318.7649"
   y="1705.3719"
   style="opacity:0.3;fill:#f7cc7f"
   width="32.810001"
   height="12.572"
   id="rect154" />
			<rect
   x="2329.615"
   y="1724.423"
   style="opacity:0.3;fill:#f7cc7f"
   width="33.580002"
   height="10.639"
   id="rect155" />
			
				<rect
   x="2583.6819"
   y="1691.429"
   transform="rotate(180,2600.0864,1697.7148)"
   style="opacity:0.3;fill:#f7cc7f"
   width="32.810001"
   height="12.572"
   id="rect156" />
			
				<rect
   x="2599.948"
   y="1707.954"
   transform="rotate(180,2616.3531,1714.2402)"
   style="opacity:0.3;fill:#f7cc7f"
   width="32.810001"
   height="12.572"
   id="rect157" />
			
				<rect
   x="2588.3279"
   y="1727.005"
   transform="rotate(180,2605.1177,1732.3237)"
   style="opacity:0.3;fill:#f7cc7f"
   width="33.578999"
   height="10.638"
   id="rect158" />
			<rect
   x="2307.043"
   y="1140.16"
   style="opacity:0.3;fill:#f7cc7f"
   width="32.616001"
   height="10.639"
   id="rect159" />
			
				<rect
   x="2239.387"
   y="1471.104"
   transform="rotate(180,2462.188,1519.0976)"
   style="fill:#df7fa3;fill-opacity:1"
   width="445.603"
   height="95.987999"
   id="rect160" />
			
				<rect
   x="2239.387"
   y="1526.527"
   transform="rotate(180,2462.188,1546.8095)"
   style="opacity:0.3;fill:#e25a44"
   width="445.603"
   height="40.563999"
   id="rect161" />
			<g
   id="g166">
				<path
   style="fill:#f4f4f4"
   d="m 2369.551,1547.15 c -1.683,-0.868 -2.934,-1.8 -3.755,-2.795 -0.823,-0.992 -1.232,-1.588 -1.232,-1.787 l 2.178,-4.321 c 0,0.101 0.373,0.559 1.118,1.378 0.745,0.82 1.758,1.578 3.038,2.272 1.28,0.696 2.761,1.044 4.442,1.044 1.797,0 3.19,-0.621 4.186,-1.863 0.993,-1.241 1.49,-2.88 1.49,-4.917 0,-1.291 -0.268,-2.422 -0.803,-3.391 -0.535,-0.968 -1.195,-1.788 -1.978,-2.458 -0.784,-0.671 -1.884,-1.527 -3.296,-2.57 -1.835,-1.241 -3.346,-2.433 -4.529,-3.576 -1.185,-1.142 -2.198,-2.632 -3.038,-4.47 -0.841,-1.837 -1.261,-4.098 -1.261,-6.78 0,-2.93 0.516,-5.487 1.547,-7.673 1.032,-2.186 2.466,-3.862 4.3,-5.029 1.834,-1.167 3.917,-1.751 6.248,-1.751 1.528,0 2.972,0.249 4.329,0.745 1.355,0.497 2.502,1.056 3.439,1.677 0.936,0.621 1.404,0.957 1.404,1.006 l -0.918,5.065 c -0.191,-0.148 -0.658,-0.484 -1.404,-1.005 -0.745,-0.522 -1.69,-1.03 -2.837,-1.528 -1.147,-0.496 -2.313,-0.744 -3.497,-0.744 -1.453,0 -2.618,0.534 -3.497,1.602 -0.88,1.068 -1.318,2.546 -1.318,4.433 0,2.086 0.516,3.75 1.548,4.991 1.031,1.242 2.617,2.608 4.758,4.098 1.91,1.341 3.439,2.56 4.586,3.651 1.146,1.093 2.131,2.57 2.952,4.432 0.821,1.863 1.232,4.186 1.232,6.967 0,3.03 -0.583,5.638 -1.748,7.822 -1.166,2.188 -2.743,3.863 -4.729,5.029 -1.987,1.166 -4.205,1.75 -6.649,1.75 -2.523,-10e-4 -4.626,-0.435 -6.306,-1.304 z"
   id="path161" />
				<path
   style="fill:#f4f4f4"
   d="m 2397.467,1541.86 c -2.942,-4.396 -4.414,-10.417 -4.414,-18.066 0,-5.066 0.669,-9.511 2.007,-13.336 1.338,-3.824 3.287,-6.779 5.848,-8.866 2.56,-2.086 5.598,-3.129 9.114,-3.129 1.758,0 3.487,0.286 5.188,0.857 1.701,0.571 3.172,1.191 4.415,1.862 1.241,0.671 1.863,1.031 1.863,1.08 l -0.803,5.438 c -0.269,-0.197 -0.917,-0.583 -1.949,-1.154 -1.032,-0.571 -2.265,-1.13 -3.697,-1.677 -1.434,-0.546 -2.78,-0.819 -4.042,-0.819 -2.141,0 -3.879,0.621 -5.216,1.862 -1.339,1.242 -2.342,3.278 -3.01,6.109 -0.669,2.831 -1.004,6.631 -1.004,11.399 0,7.003 0.783,11.994 2.351,14.975 1.566,2.98 3.993,4.47 7.28,4.47 1.835,0 3.448,-0.509 4.844,-1.527 1.395,-1.018 2.522,-2.135 3.383,-3.353 0.859,-1.217 1.29,-1.899 1.29,-2.048 l 2.521,3.575 c 0,0.25 -0.506,1.144 -1.519,2.682 -1.013,1.541 -2.494,2.969 -4.443,4.284 -1.948,1.315 -4.337,1.974 -7.165,1.974 -5.619,10e-4 -9.899,-2.196 -12.842,-6.592 z"
   id="path162" />
				<path
   style="fill:#f4f4f4"
   d="m 2428.423,1547.635 v -48.427 h 7.911 v 21.158 h 12.898 v -21.158 h 7.91 v 48.427 h -7.91 v -22.053 h -12.898 v 22.053 z"
   id="path163" />
				<path
   style="fill:#f4f4f4"
   d="m 2468.006,1541.786 c -2.924,-4.444 -4.386,-10.542 -4.386,-18.291 0,-7.748 1.462,-13.857 4.386,-18.327 2.924,-4.47 7.08,-6.705 12.469,-6.705 5.426,0 9.621,2.248 12.584,6.742 2.959,4.496 4.441,10.593 4.441,18.29 0,7.7 -1.482,13.784 -4.441,18.254 -2.963,4.47 -7.158,6.704 -12.584,6.704 -5.389,0 -9.545,-2.221 -12.469,-6.667 z m 18.803,-3.278 c 1.28,-3.104 1.921,-8.108 1.921,-15.013 0,-6.854 -0.65,-11.845 -1.949,-14.975 -1.3,-3.129 -3.402,-4.693 -6.306,-4.693 -2.866,0 -4.94,1.564 -6.22,4.693 -1.281,3.13 -1.921,8.121 -1.921,14.975 0,6.904 0.631,11.909 1.892,15.013 1.262,3.104 3.344,4.656 6.249,4.656 2.942,0 5.052,-1.552 6.334,-4.656 z"
   id="path164" />
				<path
   style="fill:#f4f4f4"
   d="m 2506.013,1541.786 c -2.924,-4.444 -4.386,-10.542 -4.386,-18.291 0,-7.748 1.462,-13.857 4.386,-18.327 2.923,-4.47 7.079,-6.705 12.469,-6.705 5.426,0 9.62,2.248 12.583,6.742 2.961,4.496 4.442,10.593 4.442,18.29 0,7.7 -1.481,13.784 -4.442,18.254 -2.963,4.47 -7.157,6.704 -12.583,6.704 -5.39,0 -9.546,-2.221 -12.469,-6.667 z m 18.802,-3.278 c 1.28,-3.104 1.921,-8.108 1.921,-15.013 0,-6.854 -0.65,-11.845 -1.949,-14.975 -1.3,-3.129 -3.402,-4.693 -6.306,-4.693 -2.866,0 -4.94,1.564 -6.221,4.693 -1.28,3.13 -1.92,8.121 -1.92,14.975 0,6.904 0.631,11.909 1.892,15.013 1.262,3.104 3.344,4.656 6.249,4.656 2.942,0 5.053,-1.552 6.334,-4.656 z"
   id="path165" />
				<path
   style="fill:#f4f4f4"
   d="m 2541.983,1547.635 v -48.427 h 7.911 v 43.063 h 14.446 v 5.364 z"
   id="path166" />
			</g>
			<polygon
   style="opacity:0.5;fill:#ffffff"
   points="2611.084,1251.94 2655.751,1337.319 2682.605,1337.319 2637.938,1251.94 "
   id="polygon166" />
			<polygon
   style="opacity:0.5;fill:#ffffff"
   points="2570.487,1251.94 2615.154,1337.319 2642.009,1337.319 2597.342,1251.94 "
   id="polygon167" />
			<polygon
   style="opacity:0.5;fill:#ffffff"
   points="2453.003,1251.94 2497.67,1337.319 2524.524,1337.319 2479.857,1251.94 "
   id="polygon168" />
			<polygon
   style="opacity:0.5;fill:#ffffff"
   points="2412.406,1251.94 2457.073,1337.319 2483.928,1337.319 2439.262,1251.94 "
   id="polygon169" />
			<polygon
   style="opacity:0.5;fill:#ffffff"
   points="2294.922,1251.94 2339.589,1337.319 2366.443,1337.319 2321.777,1251.94 "
   id="polygon170" />
			<polygon
   style="opacity:0.5;fill:#ffffff"
   points="2254.325,1251.94 2298.992,1337.319 2325.848,1337.319 2281.181,1251.94 "
   id="polygon171" />
			<polygon
   style="opacity:0.5;fill:#ffffff"
   points="2611.084,1373.258 2655.751,1458.637 2682.605,1458.637 2637.938,1373.258 "
   id="polygon172" />
			<polygon
   style="opacity:0.5;fill:#ffffff"
   points="2570.487,1373.258 2615.154,1458.637 2642.009,1458.637 2597.342,1373.258 "
   id="polygon173" />
			<polygon
   style="opacity:0.5;fill:#ffffff"
   points="2453.003,1373.258 2497.67,1458.637 2524.524,1458.637 2479.857,1373.258 "
   id="polygon174" />
			<polygon
   style="opacity:0.5;fill:#ffffff"
   points="2412.406,1373.258 2457.073,1458.637 2483.928,1458.637 2439.262,1373.258 "
   id="polygon175" />
			<polygon
   style="opacity:0.5;fill:#ffffff"
   points="2294.922,1373.258 2339.589,1458.637 2366.443,1458.637 2321.777,1373.258 "
   id="polygon176" />
			<polygon
   style="opacity:0.5;fill:#ffffff"
   points="2254.325,1373.258 2298.992,1458.637 2325.848,1458.637 2281.181,1373.258 "
   id="polygon177" />
			
				<rect
   x="2229.4419"
   y="1575.165"
   transform="rotate(180,2462.188,1595.4233)"
   style="fill:#184655"
   width="465.491"
   height="40.516998"
   id="rect177" />
			<rect
   x="1825.7321"
   y="1179.8831"
   style="fill:#184655"
   width="527.70502"
   height="18.871"
   id="rect178" />
			
				<rect
   x="2284.4231"
   y="1179.8831"
   transform="rotate(180,2692.5132,1189.3183)"
   style="fill:#184655"
   width="816.18103"
   height="18.871"
   id="rect179" />
		</g>
		<g
   id="g184"
   transform="translate(0,108)">
			<g
   id="g180">
				<path
   style="fill:#29446d"
   d="m 3527.025,1675.279 c 14.215,-36.984 28.141,-73.987 38.247,-112.463 31.1,-118.405 23.593,-204.707 22.433,-246.202 -0.154,-5.48 8.643,-6.984 9.41,-1.326 2.645,19.478 3.231,39.263 3.361,58.915 0.219,33.205 -1.801,66.428 -6.057,99.61 22.812,5.94 44.394,-2.956 62.048,-18.938 30.434,-27.551 41.298,-64.267 46.081,-104.943 0.488,-4.155 0.642,-8.086 4.024,-10.49 0.753,-2.132 3.868,-2.787 4.642,0.395 4.822,4.957 2.486,14.908 1.743,21.312 -10.042,86.627 -62.702,128.619 -105.099,128.252 -4.65,-0.041 -10.304,-0.271 -15.357,-1.675 -3.057,20.721 -6.985,41.301 -11.792,61.66 -9.159,38.796 -22.009,76.233 -36.149,113.324 -48.347,126.827 -63.772,191.617 -77.509,228.327 -2.077,7.38 -12.992,4.29 -11.083,-3.182 0.681,-2.663 38.401,-127.613 71.057,-212.576 z"
   id="path179" />
				<path
   style="fill:#29446d"
   d="m 3333.309,1341.852 c 0.459,-2.73 2.053,-4.54 2.659,-7.095 0.8,-3.37 6.302,-3.708 6.878,0 0.329,2.122 1.506,3.427 1.963,5.6 1.475,7.013 -2.09,46.468 7.216,106.864 2.473,16.052 5.204,32.014 10.55,47.336 8.64,24.766 24.386,51.461 43.965,68.333 0.621,-35.377 2.737,-70.708 6.98,-105.851 2.539,-21.033 5.742,-41.961 9.633,-62.77 1.895,-10.132 3.946,-20.232 6.149,-30.297 2.313,-10.564 4.491,-20.703 9.548,-30.262 1.553,-2.936 5.968,-1.57 5.975,1.686 0.02,9.379 -1.854,18.015 -3.811,27.125 -1.947,9.071 -3.771,18.172 -5.468,27.298 -12.58,67.627 -17.312,127.68 -17.259,195.391 20.74,-26.092 38.875,-57.339 52.313,-88.03 16.15,-36.89 27.029,-76.589 31.558,-116.876 1.267,-11.271 2.036,-22.603 2.278,-33.947 0.125,-5.873 0.245,-11.745 0.362,-17.618 0.061,-3.023 1.219,-12.136 6.31,-9.466 4.683,2.457 4.238,7.938 4.631,12.726 0.428,5.222 0.465,10.425 0.399,15.665 -0.126,10.028 -0.663,20.051 -1.593,30.033 -6.731,72.351 -34.031,143.862 -75.541,202.461 -6.326,8.932 -12.861,18.506 -20.545,26.301 1.77,115.797 18.969,262.07 19.27,273.761 0.066,2.58 -0.516,5.22 -0.896,7.77 -0.785,5.258 -7.689,4.037 -9.101,0 -2.667,-7.63 -2.394,-10.602 -6.371,-52.844 -7.093,-75.33 -15.039,-247.902 -15.009,-254.897 -24.646,-17.708 -42.098,-44.946 -53.501,-73.396 -6.051,-15.095 -9.603,-30.628 -12.266,-46.707 -9.059,-54.689 -8.776,-109.354 -7.276,-118.294 z"
   id="path180" />
			</g>
			<path
   style="fill:#184655"
   d="m 3502.727,1247.35 c -0.936,-8.345 -1.421,-16.879 -1.421,-25.562 0,-96.836 60.176,-175.337 134.407,-175.337 74.231,0 134.407,78.501 134.407,175.337 0,8.683 -0.485,17.217 -1.421,25.562 z"
   id="path181" />
			<path
   style="fill:#3c8f7c"
   d="m 3350.613,1204.257 c -0.934,-11.768 -1.421,-23.803 -1.421,-36.048 0,-136.564 60.177,-247.272 134.407,-247.272 74.231,0 134.408,110.708 134.408,247.272 0,12.245 -0.486,24.28 -1.421,36.048 z"
   id="path182" />
			<path
   style="fill:#184655"
   d="m 3614.935,1355.781 c 1.185,-11.768 1.801,-23.803 1.801,-36.048 0,-136.564 -76.285,-247.272 -170.388,-247.272 -94.104,0 -170.389,110.708 -170.389,247.272 0,12.245 0.617,24.28 1.802,36.048 z"
   id="path183" />
			<path
   style="fill:#3c8f7c"
   d="m 3484.108,1072.461 c 47.031,0 89.047,35.122 116.776,90.203 14.12,-5.058 29.123,-7.78 44.675,-7.78 83.501,0 151.191,78.501 151.191,175.337 0,8.683 -0.547,17.217 -1.599,25.561 h -460.637 c -1.051,-11.768 -1.598,-23.803 -1.598,-36.048 0,-136.565 67.692,-247.273 151.192,-247.273 z"
   id="path184" />
		</g>
		<g
   id="g187"
   transform="translate(0,108)">
			<path
   style="fill:#327765"
   d="m 3396.463,1697.479 14.015,-17.904 c 10.134,-13.475 8.067,-32.132 -4.617,-41.672 v 0 c -31.964,-24.041 -78.58,-16.005 -104.119,17.95 l -18.671,24.824 c -8.181,10.876 -21.059,15.976 -33.092,14.343 -10.93,-1.482 -22.102,3.58 -29.047,12.815 l -9.845,13.088 c -10.657,14.169 -14.345,32.104 -10.612,48.797 2.182,9.763 0.086,20.657 -6.632,29.589 l -13.938,18.531 c -15.409,20.486 -12.267,48.854 7.02,63.359 l 11.003,8.276 c 19.286,14.505 47.412,9.656 62.821,-10.831 v 0 c 16.298,-28.259 35.203,-37.422 50.475,-39.302 22.456,-2.764 43.352,-14.687 57.396,-33.359 l 1.97,-2.619 c 14.824,-19.709 20.143,-44.599 15.272,-67.907 -2.15,-10.289 -0.505,-23.212 10.601,-37.978 z"
   id="path185" />
			<path
   style="fill:#50bfa5"
   d="m 3119.082,1894.218 c 0,0 72.276,-96.006 117.76,-110.73 45.484,-14.724 9.935,36.003 9.935,36.003 0,0 73.367,-80.474 102.977,-72.52 27.142,7.291 0,61.979 0,61.979 0,0 30.569,-30.283 67.642,-30.283 37.071,0 -28.654,113.395 -28.654,113.395 z"
   id="path186" />
			<path
   style="fill:#3c8f7c"
   d="m 3349.753,1893.678 c 0,0 50.094,-141.262 111.28,-125.982 49.584,12.382 13.644,87.999 16.667,84.977 3.022,-3.023 29.616,-48.146 72.646,-48.146 43.03,0 -13.208,60.9 -13.208,60.9 0,0 91.679,-28.631 98.856,1.434 5.959,24.952 -27.361,26.818 -27.361,26.818 h -258.88 z"
   id="path187" />
		</g>
		<g
   id="g207"
   transform="translate(0,108)">
			<path
   style="fill:#466eb6"
   d="m 1612.417,1515.636 c 0,0 23.184,113.957 12.612,124.529 -10.572,10.572 -69.081,32.151 -82.365,27.217 -13.285,-4.934 -40.613,-135.124 -33.021,-148.028 7.589,-12.906 96.615,-21.859 102.774,-3.718 z"
   id="path188" />
			<path
   style="fill:#f7a491"
   d="m 1603.009,1853.966 c 0,0 -1.519,13.086 -1.519,15.306 0,2.22 0,2.22 0,2.22 l 1.088,2.259 0.431,0.896 -7.828,10.982 c 0,0 -31.428,0.468 -32.129,0.468 -0.701,0 4.206,-7.595 4.206,-7.595 0,0 10.398,-7.827 12.268,-13.318 1.87,-5.491 -1.587,-16.941 -1.587,-16.941 z"
   id="path189" />
			<path
   style="fill:#f7a491"
   d="m 1754.502,1775.667 c 0,0 11.193,6.946 12.932,8.327 1.739,1.38 1.739,1.38 1.739,1.38 l 1.093,2.256 0.434,0.895 13.469,0.697 c 0,0 19.906,-24.325 20.342,-24.874 0.436,-0.549 -5.726,0.824 -5.726,0.824 0,0 -12.565,1.699 -18.028,-0.251 -5.463,-1.949 -16.516,-12.834 -16.516,-12.834 z"
   id="path190" />
			<path
   style="fill:#b75742"
   d="m 1652.78,1652.895 120.573,102.697 -18.577,26.287 c 0,0 -118.32,-74.354 -124.804,-75.229 -6.484,-0.875 -16.667,1.413 -17.894,6.145 -1.227,4.732 -5.006,144.815 -5.006,144.815 h -32.192 l -16.785,-178.748 z"
   id="path191" />
			<g
   id="g193">
				<path
   style="fill:#f7a491"
   d="m 1479.071,1506.422 c -8.92,-5.848 -29.877,-28.335 -36.975,-35.99 -0.077,-0.9 -0.753,-6.102 -6.461,-12.711 -4.032,-4.668 -7.085,-15.32 -9.729,-12.301 -2.644,3.02 3.917,11.48 0.914,11.536 -3.003,0.056 -17.915,-16.703 -20.311,-13.967 -2.396,2.736 12.745,17.635 10.057,17.685 -2.688,0.049 -14.978,-15.039 -18.365,-11.171 -3.387,3.868 16.109,16.41 14.292,18.486 -1.817,2.076 -13.9,-6.147 -16.626,-3.034 -2.727,3.114 17.04,10.449 15.459,10.479 -1.581,0.03 -12.986,-0.279 -13.071,1.916 -0.096,2.482 28.855,6.347 32.401,10.645 v 0 c 7.564,12.045 21.03,34.044 34.666,43.697 16.684,11.811 55.243,36.863 55.243,36.863 l 19.152,-24.744 c 0,0 -50.067,-30.454 -60.646,-37.389 z"
   id="path192" />
				<path
   style="fill:#f48c7f"
   d="m 1426.817,1462.281 c -0.741,1.463 -1.06,3.051 -1.164,4.652 0.057,0.26 -0.648,5.433 3.766,9.362 -1.719,-3.197 -3.614,-6.752 -2.602,-14.014 z"
   id="path193" />
			</g>
			<g
   id="g195">
				<path
   style="fill:#f7a491"
   d="m 1655.831,1479.352 c 7.081,-7.977 21.428,-35.163 26.277,-44.407 -0.162,-0.89 -0.869,-6.087 2.913,-13.958 2.671,-5.562 2.832,-16.641 6.174,-14.418 3.341,2.223 -0.778,12.105 2.135,11.374 2.913,-0.731 12.923,-20.807 15.952,-18.792 3.028,2.014 -7.69,20.354 -5.083,19.698 2.606,-0.654 10.523,-18.432 14.805,-15.584 4.281,2.848 -11.257,20.052 -8.96,21.58 2.297,1.528 11.809,-9.568 15.254,-7.276 3.446,2.293 -13.715,14.542 -12.182,14.156 1.534,-0.385 12.461,-3.665 13.117,-1.568 0.742,2.371 -26.191,13.672 -28.49,18.747 v 0 c -4.152,13.604 -11.396,38.358 -22.033,51.242 -13.015,15.763 -43.681,50.027 -43.681,50.027 l -24.957,-18.875 c 0,0 40.362,-42.486 48.759,-51.946 z"
   id="path194" />
				<path
   style="fill:#f48c7f"
   d="m 1694.724,1423.082 c 1.098,1.218 1.821,2.667 2.34,4.186 0.013,0.266 2.046,5.074 -1.187,10.021 0.823,-3.536 1.723,-7.463 -1.153,-14.207 z"
   id="path195" />
			</g>
			<path
   style="fill:#f7cc7f"
   d="m 1635.606,1497.621 22.51,29.364 -27.943,41.569 c 0,0 2.629,30.888 6.66,40.526 4.031,9.64 27.339,49.246 27.339,49.246 0,0 -56.606,34.699 -111.985,29.617 0,0 -15.598,-80.265 -19.979,-87.977 -4.381,-7.711 -46.617,-45.915 -46.617,-45.915 l 20.505,-33.126 35.401,19.631 c 0,0 64.707,-10.456 67.822,-13.572 3.115,-3.114 26.287,-29.363 26.287,-29.363 z"
   id="path196" />
			<path
   style="fill:#f47458"
   d="m 1562.584,1437.568 c 0,0 21.848,-11.566 29.326,7.595 0,0 19.628,-1.986 16.24,18.343 0,0 19.745,9.931 7.244,35.518 0,0 5.491,24.068 -22.666,25.587 0,0 -4.206,8.528 -17.058,6.543 -12.852,-1.986 -16.123,-5.375 -16.123,-5.375 0,0 -22.783,6.66 -29.676,-13.903 0,0 -15.656,-3.738 -5.141,-23.834 0,0 -13.67,-26.054 10.398,-33.882 0,-10e-4 2.805,-26.639 27.456,-16.592 z"
   id="path197" />
			<path
   style="fill:#f7a491"
   d="m 1553.759,1494.01 c 1.776,4.954 0.5,9.943 -2.848,11.144 -3.348,1.201 -7.502,-1.843 -9.277,-6.797 -1.776,-4.954 -0.5,-9.943 2.848,-11.144 3.348,-1.199 7.502,1.844 9.277,6.797 z"
   id="path198" />
			<path
   style="fill:#f7a491"
   d="m 1612.689,1481.849 c 0.249,5.257 -2.43,9.654 -5.983,9.822 -3.553,0.168 -6.635,-3.957 -6.884,-9.214 -0.248,-5.256 2.431,-9.654 5.983,-9.822 3.554,-0.168 6.636,3.957 6.884,9.214 z"
   id="path199" />
			<path
   style="fill:#f7a491"
   d="m 1587.704,1516.666 c 0,0.343 2.838,12.542 4.344,18.991 0.562,2.406 -0.656,4.865 -2.903,5.892 -6.007,2.743 -17.821,6.571 -25.983,-0.827 -0.744,-0.674 -1.144,-1.649 -1.109,-2.652 l 1,-29.115 z"
   id="path200" />
			<path
   style="fill:#f48c7f"
   d="m 1589.225,1523.496 c -6.356,3.204 -14.354,3.27 -23.32,-1.988 -1.135,-0.665 -2.205,-1.374 -3.211,-2.121 l 0.358,-10.433 24.652,7.712 c 0,0.166 0.664,3.107 1.521,6.83 z"
   id="path201" />
			<path
   style="fill:#f7a491"
   d="m 1570.221,1449.443 c 0,0 -10.758,2.844 -17.081,13.312 -6.322,10.467 -9.813,40.728 12.764,53.963 22.576,13.236 39.002,-7.263 38.575,-26.652 -0.427,-19.39 -9.046,-44.177 -34.258,-40.623 z"
   id="path202" />
			<path
   style="fill:#466eb6"
   d="m 1608.734,1893.666 c 4.799,-0.607 -3.49,-17.25 -6.156,-19.916 l -35.32,4.751 c 0,0 -16.999,7.887 -21.03,11.917 -0.957,0.957 -1.082,2.631 3.067,3.248 13.329,1.984 48.791,1.35 59.439,0 z"
   id="path203" />
			<path
   style="fill:#466eb6"
   d="m 1782.384,1805.095 c -4.146,2.491 -11.688,-13.719 -12.119,-17.465 l 28.518,-22.458 c 0,0 22.004,-6.309 26.444,-1.869 4.032,4.03 -33.431,36.136 -42.843,41.792 z"
   id="path204" />
			<g
   id="g205">
				<path
   style="fill:#466eb6"
   d="m 1543.206,1655.508 c 22.768,-22.77 18.252,-92.736 14.085,-122.292 l -9.772,1.375 c 3.517,25.033 8.344,94.302 -11.292,113.938 z"
   id="path205" />
			</g>
			<g
   id="g206">
				<path
   style="fill:#466eb6"
   d="m 1640.378,1616.307 1.106,-8.87 c -17.701,-50.048 -33.908,-82.353 -34.069,-82.673 l -8.812,4.444 c 0.159,0.314 18.834,44.423 41.775,87.099 z"
   id="path206" />
			</g>
		</g>
		<g
   id="g226"
   transform="translate(0,108)">
			<path
   style="fill:#fae0b2"
   d="m 1203.037,1524.143 c 0,0 -38.842,-5.153 -53.012,2.177 -14.17,7.329 -21.927,94.602 -21.927,94.602 l 12.583,3.823 c 0,0 -1.79,60.432 7.826,64.629 9.616,4.198 77.177,-8.83 92.583,-24.234 15.404,-15.405 -13.595,-144.218 -13.595,-144.218 z"
   id="path207" />
			<g
   id="g209">
				<path
   style="fill:#f7a491"
   d="m 1279.708,1462.517 c 4.523,-10.158 10.217,-41.697 12.123,-52.412 -0.441,-0.833 -2.781,-5.775 -1.503,-14.79 0.902,-6.368 -2.429,-17.43 1.593,-16.273 4.022,1.157 3.041,12.275 5.706,10.631 2.665,-1.646 6.288,-24.75 9.932,-23.702 3.644,1.048 -1.229,22.65 1.155,21.179 2.384,-1.473 4.651,-21.635 9.803,-20.153 5.153,1.481 -4.87,23.476 -2.105,24.271 2.765,0.795 8.721,-13.23 12.868,-12.038 4.147,1.192 -9.049,18.773 -7.646,17.907 1.403,-0.866 11.229,-7.568 12.542,-5.691 1.484,2.122 -21.722,21.84 -22.407,27.607 v 0 c 0.16,14.828 0.761,41.713 -5.751,57.867 -7.968,19.767 -27.648,63.482 -27.648,63.482 l -30.75,-10.896 c 0,-10e-4 26.723,-54.943 32.088,-66.989 z"
   id="path208" />
				<path
   style="fill:#f48c7f"
   d="m 1300.631,1394.34 c 1.475,0.865 2.65,2.077 3.645,3.423 0.096,0.26 3.632,4.398 1.979,10.334 -0.297,-3.775 -0.64,-7.96 -5.624,-13.757 z"
   id="path209" />
			</g>
			<path
   style="fill:#f7a491"
   d="m 1082.833,1531.978 c 0,0 1.354,-4.991 -2.026,-13.285 -2.168,-5.321 -1.879,-15.656 -4.95,-13.757 -3.071,1.9 0.222,11.324 -2.351,10.492 -2.573,-0.832 -10.727,-20.059 -13.509,-18.338 -2.783,1.723 6.071,19.367 3.77,18.623 -2.302,-0.745 -8.677,-17.723 -12.611,-15.288 -3.934,2.434 9.269,19.269 7.158,20.575 -2.111,1.307 -10.17,-9.526 -13.336,-7.567 -3.166,1.959 11.678,14.26 10.324,13.822 -1.354,-0.438 -10.983,-4.059 -11.651,-2.138 -0.754,2.172 19.228,10.919 21.082,15.768 1.854,4.849 32.485,54.53 42.642,55.645 10.156,1.115 59.106,-24.853 63.498,-34.537 4.393,-9.685 1.408,-20.777 -5.091,-22.88 -6.499,-2.103 -52.334,23.945 -54.375,23.285 -2.041,-0.661 -28.574,-30.42 -28.574,-30.42 z"
   id="path210" />
			<path
   style="fill:#f48c7f"
   d="m 1073.938,1518.916 c -1.15,1.265 -1.911,2.771 -2.459,4.353 -0.014,0.276 -2.157,5.28 1.19,10.454 -0.841,-3.692 -1.76,-7.789 1.269,-14.807 z"
   id="path211" />
			<path
   style="fill:#f7a491"
   d="m 1124.407,1763.68 c -5.261,-1.826 -14.775,-11.448 -14.775,-11.448 -12.205,9.432 -37.508,38.862 -37.508,38.862 0,0 4.727,3.257 8.764,1.425 4.036,-1.833 22.602,-10.142 31.236,-7.146 2.248,0.781 27.433,9.323 49.757,15.077 2.748,-8.005 -4.8,-24.012 -1.074,-31.527 -11.917,-3.877 -34.659,-4.639 -36.4,-5.243 z"
   id="path212" />
			<path
   style="fill:#07345a"
   d="m 1118.314,1759.958 c 0,0 -21.896,22.382 -24.031,26.354 -1.74,3.236 -28.914,14.346 -30.279,10.193 -1.364,-4.151 32.327,-48.634 37.644,-50.26 5.317,-1.626 16.666,13.713 16.666,13.713 z"
   id="path213" />
			<path
   style="fill:#f7a491"
   d="m 1260.143,1828.735 c -1.834,5.095 -11.704,14.378 -11.704,14.378 9.914,11.666 40.706,35.743 40.706,35.743 0,0 3.324,-4.596 1.379,-8.468 -1.945,-3.872 -11.788,-27.958 -8.777,-36.318 0.784,-2.178 6.535,-18.391 11.935,-27.553 -8.329,-2.562 -16.499,-6.503 -24.332,-10.013 -3.886,11.537 -8.6,30.545 -9.207,32.231 z"
   id="path214" />
			<path
   style="fill:#b75742"
   d="m 1256.703,1655.234 c 0,0 56.984,56.262 62.79,67.115 4.339,8.111 -21.959,91.496 -21.959,91.496 0,0 -24.724,-1.879 -35.064,-11.853 0,0 13.081,-58.18 10.365,-60.799 -2.716,-2.619 -67.827,-40.39 -67.827,-40.39 l 8.085,-34.479 z"
   id="path215" />
			<path
   style="fill:#f47458"
   d="m 1244.137,1653.754 c 0,0 -14.878,34.534 -14.878,48.007 0,10.315 4.559,92.967 -17.222,100.938 -12.36,4.523 -70.561,-2.151 -70.561,-2.151 l 5.271,-37.42 c 0,0 27.711,4.115 30.144,1.768 2.433,-2.347 -22.193,-64.669 -17.057,-86.052 5.137,-21.383 47.852,-34.421 47.852,-34.421 z"
   id="path216" />
			<path
   style="fill:#9bc1f9"
   d="m 1262.6,1493.278 c 0,0 6.946,2.082 28.332,31.146 l -34.334,54.271 -20.917,-50.438 z"
   id="path217" />
			<path
   style="fill:#9bc1f9"
   d="m 1212.555,1528.762 c 0,0 18.952,-2.142 25.781,-4.619 6.829,-2.478 51.616,145.34 35.951,148.703 -32.72,7.024 -117.716,25.75 -117.716,25.75 0,0 -1.482,-8.447 3.101,-23.036 7.936,-25.263 12.431,-83.071 12.431,-93.261 0,-5.988 -31.01,14.768 -31.01,14.768 l -12.995,-46.959 c 0,0 39.592,-15.901 53.466,-18.762 3.868,-0.797 30.991,-2.584 30.991,-2.584 z"
   id="path218" />
			<g
   id="g219">
				<path
   style="fill:#fae0b2"
   d="m 1271.593,1623.649 c -4.981,-24.126 -47.38,-96.524 -47.747,-97.208 l 8.7,-4.659 c 1.523,2.846 35.835,64.053 41.104,89.571 z"
   id="path219" />
			</g>
			<path
   style="fill:#07345a"
   d="m 1256.745,1834.163 c 0,0 24.699,22.534 29.169,24.71 3.643,1.773 12.066,28.436 7.437,29.905 -4.63,1.471 -50.48,-31.575 -52.363,-37.092 -1.884,-5.516 15.757,-17.523 15.757,-17.523 z"
   id="path220" />
			<g
   id="g221">
				<path
   style="fill:#fae0b2"
   d="m 1159.331,1655.354 -4.442,-7.071 c 0.377,-0.237 37.884,-24.181 42.114,-54.73 4.275,-30.869 -17.486,-63.303 -17.706,-63.627 l 6.9,-4.702 c 0.975,1.429 23.798,35.377 19.078,69.474 -4.767,34.428 -44.265,59.602 -45.944,60.656 z"
   id="path221" />
			</g>
			<g
   id="g222">
				<path
   style="fill:#184655"
   d="m 1213.083,1429.929 c 0,0 14.994,-5.435 24.685,9.756 9.691,15.191 4.452,13.75 9.167,21.345 4.714,7.596 17.024,6.024 17.024,17.811 0,11.785 -5.5,13.618 -5.5,13.618 0,0 4.976,9.167 -0.523,18.596 -5.5,9.429 -19.214,17.548 -30.691,16.237 0,0 -17.237,9.451 -34.523,4.987 -17.286,-4.463 -11.262,-4.463 -18.333,-4.463 -7.071,0 -26.19,-9.69 -23.048,-23.833 0,0 -11.649,-13.84 -0.346,-25.143 11.304,-11.305 13.441,-22.786 19.989,-37.977 6.548,-15.191 34.242,-14.601 42.099,-10.934 z"
   id="path222" />
			</g>
			<path
   style="fill:#f7a491"
   d="m 1223.101,1510.792 c 0,0 -0.629,20.857 1.33,22.816 1.958,1.959 4.694,5.207 1.813,10.183 -2.881,4.977 -15.387,1.801 -21.214,-1.047 -5.593,-2.734 -9.203,-7.82 -9.203,-7.82 l 2.917,-33.037 z"
   id="path223" />
			<path
   style="fill:#b75742"
   d="m 1214.785,1519.435 c -4.016,-1.405 -11.033,-4.12 -16.45,-12.922 l 0.409,-4.626 24.357,8.904 c 0,0 -0.153,5.089 -0.072,10.476 -3.414,-0.142 -6.328,-1.163 -8.244,-1.832 z"
   id="path224" />
			<path
   style="fill:#f7a491"
   d="m 1194.453,1478.3 c 0,0 -0.592,-12.263 -8.124,-9.882 -7.532,2.382 -1.792,20.889 4.453,20.28 6.243,-0.608 3.671,-10.398 3.671,-10.398 z"
   id="path225" />
			<path
   style="fill:#f7a491"
   d="m 1218.125,1438.244 c 0,0 11.786,-0.262 17.81,8.904 6.024,9.167 12.571,35.357 2.619,53.429 -9.953,18.071 -22.655,13.619 -27.893,11.786 -5.238,-1.834 -15.583,-5.894 -20.821,-22.786 -5.238,-16.892 -1.442,-54.868 28.285,-51.333 z"
   id="path226" />
		</g>
		
			
	</g>
	<path
   style="fill:#ffffff"
   d="m 1234.568,1491.111 -18.794,-0.01 c 0,0 0.429,7.138 8.694,7.381 10.077,0.297 10.1,-7.371 10.1,-7.371 z"
   id="path227" />
	<path
   style="fill:#ffffff"
   d="m 1590.917,1500.175 -18.715,1.724 c 0,0 1.086,7.068 9.338,6.548 10.062,-0.635 9.377,-8.272 9.377,-8.272 z"
   id="path228" />
</g>
</svg>
